<?xml version="1.0" standalone="no"?>
<!DOCTYPE svg PUBLIC "-//W3C//DTD SVG 20010904//EN"
 "http://www.w3.org/TR/2001/REC-SVG-20010904/DTD/svg10.dtd">
<svg version="1.0" xmlns="http://www.w3.org/2000/svg"
 width="113.000000pt" height="113.000000pt" viewBox="0 0 113.000000 113.000000"
 preserveAspectRatio="xMidYMid meet">
<metadata>
Created by potrace 1.11, written by Peter Selinger 2001-2013
</metadata>
<g transform="translate(0.000000,113.000000) scale(0.100000,-0.100000)"
fill="#000000" stroke="none">
<path d="M322 950 c-18 -16 -39 -30 -46 -30 -19 0 -79 -48 -94 -75 -7 -14 -22
-25 -33 -25 -33 0 -72 -25 -109 -71 -29 -37 -35 -52 -38 -107 -3 -48 0 -71 14
-98 10 -19 22 -34 26 -34 4 0 5 -19 2 -42 -5 -36 -2 -48 18 -70 28 -33 71 -50
104 -42 30 8 74 63 74 93 l0 21 323 -2 c262 -3 321 -5 319 -16 -5 -24 37 -80
68 -90 37 -14 68 -5 103 27 24 22 27 33 26 72 -2 34 3 54 20 78 29 40 37 98
21 146 -21 65 -97 135 -147 135 -10 0 -27 15 -39 33 -12 18 -39 41 -60 52 -21
11 -54 32 -72 48 -27 22 -42 27 -88 27 -30 0 -65 -5 -77 -12 -23 -12 -58 -52
-68 -76 -4 -11 -12 -6 -29 19 -40 58 -59 69 -125 69 -53 0 -64 -4 -93 -30z
m156 -8 c18 -9 41 -31 52 -47 l19 -30 -57 4 c-43 2 -60 8 -71 23 -7 11 -28 26
-45 33 l-31 14 25 10 c38 15 72 13 108 -7z m269 7 l28 -11 -27 -12 c-15 -7
-37 -22 -48 -34 -15 -15 -32 -22 -60 -22 -21 0 -47 -3 -57 -7 -17 -6 -17 -6 0
14 9 11 17 24 17 29 0 9 31 32 60 46 23 10 56 9 87 -3z m-362 -61 c14 -6 25
-15 25 -20 0 -5 -4 -7 -9 -3 -12 7 -41 -22 -41 -42 0 -11 8 -14 30 -11 36 5
40 -9 5 -18 -43 -11 -73 3 -80 36 -14 62 13 84 70 58z m423 -33 c3 -29 -1 -43
-14 -52 -21 -15 -70 -17 -79 -3 -4 6 7 10 24 10 38 0 39 15 5 46 l-25 24 23
10 c45 18 63 9 66 -35z m-535 10 c-7 -32 32 -93 63 -101 13 -4 36 -4 50 -1 23
4 25 2 20 -19 l-6 -24 165 0 c151 0 186 6 155 25 -21 13 -8 20 30 17 35 -4 44
0 70 28 21 23 30 42 30 67 l0 34 30 -17 c33 -20 48 -46 29 -53 -26 -8 -59 -51
-59 -74 0 -14 7 -30 16 -38 14 -11 13 -14 -11 -26 -23 -13 -30 -12 -61 6 -32
19 -51 21 -238 21 -192 0 -205 -1 -230 -21 -23 -18 -31 -20 -56 -9 -29 12 -29
12 -9 33 10 11 19 29 19 38 0 21 -35 57 -65 69 -19 7 -18 9 14 39 40 37 50 39
44 6z m-113 -100 c0 -14 11 -37 24 -50 l24 -23 -25 -6 c-33 -9 -65 -63 -57
-98 4 -21 2 -28 -9 -28 -8 0 -20 -7 -27 -15 -19 -23 -25 -19 -44 35 -17 47
-17 84 0 142 5 18 80 68 102 68 6 0 12 -11 12 -25z m73 11 c24 -19 23 -56 -3
-56 -19 0 -40 33 -40 61 0 13 22 11 43 -5z m697 -4 c0 -28 -25 -56 -44 -49
-23 9 -20 33 6 51 29 21 38 20 38 -2z m72 9 c73 -28 107 -122 77 -210 -12 -35
-12 -35 -60 -18 -30 10 -34 15 -25 29 15 25 -17 87 -52 100 l-28 11 23 23 c13
13 23 35 23 49 0 27 6 30 42 16z m-735 -137 c3 -9 1 -19 -6 -23 -6 -4 -15 -22
-20 -39 -9 -31 -9 -32 21 -32 37 0 33 -24 -5 -28 -15 -2 -27 -10 -27 -18 0
-11 -4 -11 -19 3 -11 9 -17 22 -14 30 4 9 -3 16 -16 20 -30 8 -32 67 -3 90 25
18 81 16 89 -3z m678 2 c24 -17 24 -72 0 -90 -10 -7 -16 -17 -13 -22 3 -5 -5
-17 -18 -27 -19 -14 -23 -15 -18 -2 5 11 0 15 -19 15 -13 0 -30 7 -37 15 -11
13 -8 15 19 15 37 0 37 3 10 54 -17 31 -18 40 -7 47 20 13 62 11 83 -5z m-127
-113 c3 -10 -53 -13 -257 -13 -229 0 -260 2 -255 15 5 13 40 15 257 13 189 -2
251 -6 255 -15z m-655 0 c10 -10 -45 -34 -62 -28 -14 6 -13 8 3 21 21 15 48
18 59 7z m851 -6 c15 -11 16 -15 3 -25 -11 -10 -17 -9 -27 3 -7 8 -19 15 -27
15 -8 0 -11 5 -8 10 9 14 38 12 59 -3z m-44 -43 c0 -2 -12 -4 -27 -4 -21 0
-24 3 -14 9 13 8 41 5 41 -5z m-777 -1 c-7 -2 -21 -2 -30 0 -10 3 -4 5 12 5
17 0 24 -2 18 -5z m-77 -30 c-7 -7 20 -33 34 -33 7 0 10 6 7 14 -4 10 4 15 28
18 32 4 32 3 23 -21 -12 -32 -25 -41 -60 -41 -32 0 -68 31 -68 59 0 14 5 18
20 14 12 -3 19 -8 16 -10z m910 -38 c-27 -41 -116 -27 -116 19 0 11 9 16 30
16 22 0 28 -4 24 -15 -10 -25 21 -17 46 13 21 23 25 25 28 9 2 -10 -4 -29 -12
-42z"/>
<path d="M250 435 c0 -3 10 -16 22 -30 l22 -25 269 0 c245 0 271 2 283 18 32
42 29 42 -291 42 -168 0 -305 -2 -305 -5z"/>
<path d="M310 349 c0 -4 7 -12 15 -19 8 -7 15 -19 15 -26 0 -11 38 -14 209
-14 215 0 241 3 241 25 0 7 7 15 15 19 44 16 -8 21 -240 21 -140 0 -255 -3
-255 -6z"/>
<path d="M360 270 c0 -5 9 -14 20 -20 11 -6 20 -17 20 -25 0 -7 6 -15 12 -17
7 -3 13 -13 13 -24 0 -18 10 -19 138 -22 130 -2 137 -2 137 17 0 11 6 26 13
33 14 14 37 53 37 62 0 3 -88 6 -195 6 -119 0 -195 -4 -195 -10z"/>
</g>
</svg>
